PathFileType	4	(X/Y/Z)	C:/Users/beibeiliu/ov580/test_trc/User2\sequence.27_training_dense_right.trc
DataRate	CameraRate	NumFrames	NumMarkers	Units	OrigDataRate	OrigDataStartFrame	OrigNumFrames
120	120	10	19	mm	120	37	72
Frame#	Time	ThumbCMC			ThumbMCP			ThumbIP			ThumbTip			IndexMCP			IndexPIP			IndexTip			MiddleMCP			MiddlePIP			MiddleTip			RingMCP			RingPIP			RingTip			PinkyMCP			PinkyPIP			PinkyTip			BackHand1			BackHand2			BackHand3	
		X0	Y0	Z0	X1	Y1	Z1	X2	Y2	Z2	X3	Y3	Z3	X4	Y4	Z4	X5	Y5	Z5	X6	Y6	Z6	X7	Y7	Z7	X8	Y8	Z8	X9	Y9	Z9	X10	Y10	Z10	X11	Y11	Z11	X12	Y12	Z12	X13	Y13	Z13	X14	Y14	Z14	X15	Y15	Z15	X16	Y16	Z16	X17	Y17	Z17	X18	Y18	Z18	
36	0.3	66.7323	30.1068	-26.5697	51.079	14.4164	-55.0028	40.3496	7.36916	-92.0359	33.4135	-1.81572	-110.654	79.8178	67.0987	-98.8858	69.7397	62.8185	-123.455	68.0458	54.1441	-148.194	93.442	64.4689	-107.19	88.3341	58.7149	-134.995	79.1495	57.0052	-166.484	115.649	51.2623	-106.446	106.663	48.9031	-134.78	98.1836	49.1174	-160.42	132.389	34.0564	-96.7596	122.079	33.9349	-125.258	114.16	37.6327	-140.127	130.568	46.2903	-44.5303	133.815	40.7557	-15.0983	102.549	55.7417	-21.5731	
37	0.308333	66.1994	25.6482	-23.6435	48.1093	12.329	-56.5262	40.6315	5.27665	-94.6955	36.0466	-3.29776	-114.781	78.592	64.8283	-96.3754	72.4629	60.2415	-122.32	62.8615	56.1026	-148.544	95.7209	62.0646	-107.008	89.3992	56.5618	-136.027	81.4673	54.0353	-166.247	115.405	49.5704	-106.24	105.208	47.3988	-134.308	96.0877	48.6734	-156.594	130.842	31.6418	-98.8774	120.608	32.1261	-124.27	110.9	37.397	-143.753	131.773	43.3696	-42.7681	136.25	35.7077	-15.1655	101.294	54.8849	-25.9753	
38	0.316667	64.4508	31.9849	-21.7783	48.8261	21.4426	-56.922	42.6895	17.2298	-94.6068	37.8655	8.82477	-113.877	79.3409	76.2011	-94.725	70.6897	74.7014	-119.488	65.4284	69.5834	-145.987	100.202	72.096	-101.242	88.2525	71.6139	-129.238	79.2953	72.021	-160.781	113.382	60.0313	-104.679	109.347	59.608	-127.089	97.2857	63.1232	-152.475	130.628	40.5096	-93.5826	123.605	41.0945	-117.552	112.819	47.7819	-138.059	130.408	46.3714	-39.9777	132.325	38.211	-11.7715	103.068	59.5855	-20.1548	
39	0.325	61.849	40.1924	-21.6086	52.506	34.0816	-61.2248	49.5388	31.2689	-94.7959	43.6728	24.5849	-116.027	82.968	91.1813	-82.0136	75.8649	93.2116	-110.125	70.6589	91.0069	-138.595	101.386	89.9817	-94.6317	95.3548	90.8144	-126.002	89.2944	91.865	-156.099	121.559	74.4075	-100.1	113.771	77.9795	-122.949	104.348	82.4193	-149.555	132.017	55.5536	-89.0221	127.304	58.4804	-115.55	119.272	65.5494	-137.569	135.187	54.2223	-36.4205	135.461	39.1654	-6.36397	103.05	66.6212	-14.6032	
40	0.333333	67.1345	43.8922	-25.9042	57.5366	35.393	-61.5891	53.4177	33.6001	-96.8177	52.8813	31.0402	-120.555	91.275	96.3503	-82.3512	88.7513	96.3016	-110.897	84.3587	95.1943	-141.861	114.061	91.8538	-92.3027	105.423	94.8457	-120.437	100.951	98.6636	-153.441	132	76.1701	-94.0774	124.06	82.0303	-120.649	119.049	86.4862	-146.526	144.103	57.2813	-89.1325	137.919	61.8569	-114.897	132.456	69.4201	-135.802	137.554	57.1498	-34.3705	138.665	42.0482	-4.57706	108.645	64.1844	-14.7728	
41	0.341667	75.1801	40.5205	-28.6726	63.0562	30.4797	-63.6982	66.0602	28.5488	-100.563	63.738	23.6005	-126.58	99.9636	90.933	-88.3965	98.8295	88.8757	-117.339	95.3991	86.0621	-143.352	121.343	86.6059	-98.5237	119.645	85.5753	-127.808	116.746	86.1969	-160.019	140.826	70.5923	-99.4268	134.942	73.4912	-121.24	130.719	75.571	-153.145	154.026	50.0074	-87.3406	144.803	55.4675	-116.341	144.255	59.3354	-136.214	146.033	53.4524	-32.5678	142.704	39.9966	-7.80965	111.121	63.603	-15.9965	
42	0.35	79.1985	36.9601	-30.8372	68.2999	22.0812	-63.3675	69.2998	14.7955	-101.34	68.9071	7.13612	-126.083	108.031	74.5733	-98.8211	105.676	69.1881	-122.521	103.027	61.0059	-149.144	129.183	70.1212	-104.883	126.475	65.758	-130.937	122.312	61.4838	-163.136	142.582	56.114	-100.195	140.655	53.6415	-127.424	134.164	52.2361	-152.001	159.165	37.1588	-88.3345	154.569	36.7998	-113.51	149.628	39.4494	-138.745	148.401	48.7176	-33.809	146.046	38.8711	-7.11662	114.51	61.8567	-22.8774	
43	0.358333	73.4632	31.0751	-28.8359	65.618	11.2487	-58.7642	65.5948	-3.25249	-91.5156	66.331	-15.0701	-112.387	105.139	54.3536	-99.1037	97.9548	42.8547	-129.86	95.8848	29.8238	-149.801	123.65	47.286	-103.78	116.523	37.1803	-134.591	113.712	25.7061	-161.223	140.447	34.6346	-101.134	134.47	24.7505	-129.536	132.05	15.5956	-152.572	155.626	18.7621	-89.1452	147.367	12.8998	-112.48	144.447	8.43184	-136.173	145.127	40.3673	-35.3886	143.471	37.0929	-6.63285	114.972	53.2752	-22.6594	
44	0.366667	71.9986	28.1354	-27.1145	56.1594	6.60135	-49.8169	52.6589	-13.4674	-79.5344	49.7131	-29.1877	-99.5678	92.4966	37.5368	-104.62	84.3086	23.3311	-123.711	82.1191	1.96847	-144.353	110.385	27.7796	-106.896	103.95	10.1017	-132.286	95.0652	-5.56774	-156.384	127.801	12.5616	-103.99	119.373	0.283153	-126.842	112.763	-13.7308	-146.897	139.472	1.6631	-85.6296	133.333	-11.4173	-110.25	123.711	-16.9124	-130.329	141.288	33.0104	-41.6186	138.771	31.2262	-4.99691	109.079	50.6762	-24.8087	
45	0.375	68.6498	36.5818	-22.1427	45.7014	14.7206	-43.7341	31.6826	-5.83307	-69.342	22.6717	-22.9568	-86.1696	84.8392	32.6621	-98.4071	66.8829	16.9265	-117.128	55.2631	-4.92787	-134.916	96.225	19.5655	-104	81.5103	2.70717	-123.191	68.1846	-18.894	-144.832	111.586	3.1015	-97.416	96.9953	-13.8092	-119.618	83.8236	-27.5712	-137.844	124.047	-13.4314	-85.6057	109.492	-23.0352	-100.492	100.58	-35.7567	-122.534	132.856	25.5837	-41.5093	140.282	27.8356	-6.92153	108.32	52.8989	-30.1249	
